<svg id="Layer_1" data-name="Layer 1" xmlns="http://www.w3.org/2000/svg" viewBox="0 0 176.12 84.12"><defs><style>.cls-1{fill:#010101;}</style></defs><path d="M321,217.87l13.09-34.58h4.8L352,217.87h-3.31l-11.71-31.32H336l-11.76,31.32Zm6.28-9.34v-2.91h18.62v2.91Z" transform="translate(-175.83 -133.75)"/><path class="cls-1" d="M175.83,151.65c0-8.88,7.69-17,16.42-17,9.37,0,16.36,6.92,16.36,16.94,0,8.94-7.68,16.84-16.46,16.84C182.77,168.44,175.83,161.57,175.83,151.65Zm27.89-.1c0-9.61-4.89-16.38-11.63-16.38-6.93,0-11.39,6.41-11.39,16.53,0,9.56,4.79,16.17,11.63,16.17C199.36,167.87,203.72,161.57,203.72,151.55Z" transform="translate(-175.83 -133.75)"/><path class="cls-1" d="M238.78,162.47h-.46c-2.22,4.3-5.57,6.24-10.66,6.24-9,0-15.28-7.45-15.28-17.16,0-9.91,6.34-17.16,15.51-17.16,7.5,0,12.27,4.55,13.57,10.3H238c-1-3.87-4.36-7.16-10.15-7.16-7.32,0-12.09,5.95-12.09,14,0,7.88,4.82,14,11.86,14,5.6,0,10.84-3.34,10.84-10.15v-1.65H227.84v-3h13.67v17.39h-2.73Z" transform="translate(-175.83 -133.75)"/><path class="cls-1" d="M265.92,174.34l-.68-.91q-8.87-10.71-8.86-21c0-5.11,1.35-9.65,5.06-13.27a20.6,20.6,0,0,1,19.14-4.8c7.12,1.87,12.32,8.49,11.29,16-.84,6.1-5,11.58-9.88,15.15l-7.14,5.08,22.39,26.85,11.11-15.87L301.82,173H319.1l-8.49,8.71L298.51,199l15.94,18.64-13.69-.35-9-10.67c-1.66,1.57-3.43,3.07-5.23,4.47a29.33,29.33,0,0,1-24.89,5.42A18.31,18.31,0,0,1,248,196.39a19.41,19.41,0,0,1,1-4c2.32-6.35,7.61-10.92,12.83-14.92C262.1,177.26,265.93,174.35,265.92,174.34Zm-9.59,19.81c.37,9.65,7.46,18.76,17.72,18.14A24.89,24.89,0,0,0,290.39,205c-.3-.3-7.46-9.8-23-29.22a82.81,82.81,0,0,0-6.65,6.19A17,17,0,0,0,256.33,194.15ZM271,166.06l2.78,3.4s3.32-2.74,5.11-4.47c7.54-7.26,9.42-16.05,4.9-24.09a10.46,10.46,0,0,0-12.52-4.76C266,138.1,264,143.75,264,149,264,155,266.85,160.68,271,166.06Z" transform="translate(-175.83 -133.75)"/></svg>