<svg id="Layer_1" data-name="Layer 1" xmlns="http://www.w3.org/2000/svg" viewBox="0 0 164.57 193.81"><defs><style>.cls-1{fill:#010101;}</style></defs><path class="cls-1" d="M123.22,133.47l-1.57-2.11Q101.16,106.63,101.16,83c0-11.81,3.12-22.29,11.69-30.67,11.29-11,29.1-15.07,44.24-11.09,16.45,4.32,28.46,19.61,26.09,36.88-1.94,14.1-11.6,26.76-22.83,35-1.5,1.1-16.5,11.75-16.5,11.75l51.72,62,25.66-36.66-15.08-19.91h39.94l-19.63,20.13-27.94,40,36.82,43.06-31.62-.8L182.9,208.06c-3.83,3.62-7.91,7.08-12.07,10.32-16,12.45-37.75,17.6-57.51,12.51a42.28,42.28,0,0,1-31.44-46.48,43.17,43.17,0,0,1,2.23-9.18c5.34-14.69,17.56-25.24,29.62-34.49C114.4,140.23,123.23,133.5,123.22,133.47Zm-22.17,45.78c.86,22.29,17.25,43.34,40.94,41.91a57.55,57.55,0,0,0,37.76-16.89c-.69-.71-17.23-22.64-53.2-67.51,0,0-11.57,9.74-15.37,14.3C104.06,159.59,100.63,168.33,101.05,179.25Zm34-64.91,6.4,7.87s7.68-6.35,11.81-10.33C170.7,95.1,175,74.78,164.59,56.21c-5.6-10-18-15-28.91-11-12.31,4.54-17,17.6-17,29.76C118.65,88.8,125.37,101.92,135.06,114.34Z" transform="translate(-81.52 -39.69)"/></svg>