<?xml version="1.0" encoding="utf-8"?>
<!-- Generator: Adobe Illustrator 25.1.0, SVG Export Plug-In . SVG Version: 6.00 Build 0)  -->
<svg version="1.1" id="Layer_1" xmlns="http://www.w3.org/2000/svg" xmlns:xlink="http://www.w3.org/1999/xlink" x="0px" y="0px"
	 viewBox="0 0 248.6 52.8" style="enable-background:new 0 0 248.6 52.8;" xml:space="preserve">
<style type="text/css">
	.st0{fill:#FFFFFF;}
</style>
<path class="st0" d="M0,15.8C0,8.4,6.5,1.5,13.8,1.5c7.9,0,13.8,5.8,13.8,14.2c0,7.5-6.5,14.2-13.8,14.2C5.8,29.9,0,24.2,0,15.8z
	 M23.4,15.7C23.4,7.7,19.3,2,13.7,2C7.8,2,4.1,7.4,4.1,15.9c0,8,4,13.6,9.8,13.6C19.8,29.5,23.4,24.2,23.4,15.7z"/>
<path class="st0" d="M29.3,28.7h0.7c1.3-0.1,1.8-0.1,1.8-0.7V4.2c0-2.7-0.2-2.7-1.7-2.7h-1.5V1l6.1-0.9v28c0,0.3,0.2,0.4,2.1,0.6
	h0.6l0.1,0.7h-8.3L29.3,28.7z"/>
<path class="st0" d="M38.6,28.7h0.8c1.3-0.1,1.8-0.1,1.8-0.7V15.8c0-2.7-0.3-3.2-1.7-3.4l-1-0.2V12l5.7-1.5l-0.2,3.6h0.1
	c1.4-1.4,3.5-3.8,6.4-3.8c1.2,0,2.4,0.4,3.2,1.3c0.6,0.7,1,1.6,1.1,2.5l0,0c1.5-1.6,3.6-3.9,6.5-3.9c1.2-0.1,2.4,0.4,3.2,1.3
	c0.9,1.2,1.4,2.7,1.3,4.2V28c0,0.3,0,0.4,2.1,0.6h0.5l0.1,0.7h-8.3l0.1-0.7H61c1.5-0.1,1.7-0.3,1.7-0.7V16.4c0-2.6-1-3.8-3.5-3.8
	c-1.8,0-3.8,1-4.3,2.2L54.8,15v13c0,0.3,0,0.4,2.1,0.6h0.6l0.1,0.7h-8.2l0.1-0.7h0.8c1.4-0.1,1.7-0.3,1.7-0.7V16.4
	c0-2.6-1-3.8-3.5-3.8c-1.7,0-3.3,0.8-4.5,2V28c0,0.3,0.2,0.4,2.1,0.6h0.6l0.1,0.7h-8.3L38.6,28.7z"/>
<path class="st0" d="M81.3,28.9c-1.1,0.7-2.3,1-3.6,1c-4.7,0-8.3-4.1-8.3-9.3c0-5.6,3.5-10.2,8.8-10.2c4.2,0,6.6,2.7,6.6,6
	c0,0.2,0,0.4-0.1,0.6h-12c-0.1,0.8-0.1,1.6-0.2,2.3c0,5.1,2.9,8.5,6.5,8.5c2.6,0,3.7-1.5,5.7-3.5l0.6,0.4L81.3,28.9z M81.6,16.4
	c0-2.9-1.1-5.6-3.6-5.6c-2.3,0-4.4,2.6-5.1,5.7L81.6,16.4z"/>
<path class="st0" d="M100.8,26.1L100.8,26.1c-1.8,2.1-3.9,3.8-6.6,3.8c-4.1,0-7.4-3.7-7.4-9.1c0-6.5,4.8-10.2,9.2-10.2
	c1.6-0.1,3.2,0.3,4.7,1.1l0,0V3.6c0-1.7-0.2-2.4-1.7-2.4h-1.4V0.5l6-0.5v27.6c0,1,0.2,1.4,1.1,1.5l1.6,0.3V30h-5.4L100.8,26.1z
	 M100.8,25.4V15.1c-0.8-2.3-2.9-3.8-5.3-4c-3.4,0-5.4,3.7-5.4,8.6c0,4.5,2.3,8.3,5.9,8.3C97.9,27.9,99.7,26.9,100.8,25.4z"/>
<path class="st0" d="M107.1,20.2c0-5.4,4.1-9.9,9.3-9.9s9.3,4.2,9.3,9.7s-4,9.9-9.3,9.9c-5.2,0-9.3-4.2-9.3-9.3
	C107.1,20.5,107.1,20.3,107.1,20.2z M122.3,20.4c0-3.3-0.7-6.5-2.3-8.1c-0.9-1-2.2-1.6-3.6-1.6c-3.6,0-5.8,4.3-5.8,9
	c0,3.6,0.8,6.7,2.4,8.4c0.9,1,2.2,1.5,3.5,1.5C119.9,29.5,122.3,25.3,122.3,20.4z"/>
<path class="st0" d="M155,24.5h-0.4c-1.9,3.6-4.7,5.2-9,5.2c-7.6,0-12.9-6.3-12.9-14.4c0-8.3,5.3-14.4,13-14.4
	c6.3,0,10.3,3.8,11.4,8.7h-2.9c-0.9-3.2-3.7-6-8.5-6c-6.1,0-10.2,5-10.2,11.8c0,6.6,4.1,11.8,10,11.8c4.7,0,9.1-2.8,9.1-8.5v-1.4h-9
	v-2.5h11.5v14.6h-2.3L155,24.5z"/>
<path class="st0" d="M167.6,18.5l4.2-0.7c2-0.3,2.6-0.6,2.6-1.6c-0.1-3-1.6-4.6-4.6-4.6s-4.8,1.6-5,4.3h-2.6c0.2-3.8,3-6.5,7.6-6.5
	s7.4,2.6,7.4,7.1v12.8h-2.6v-3.1h-0.1c-1.1,2.3-3.5,3.6-6.6,3.6c-4.1,0-6.4-2.2-6.4-5.4S163.3,19.3,167.6,18.5z M174.4,18.8
	c-0.6,0.6-1.4,0.9-2.2,1l-4.1,0.7c-2.8,0.4-4,1.7-4,3.6s1.4,3.4,4.1,3.4c3.4,0,6.2-2,6.2-6.5L174.4,18.8z"/>
<path class="st0" d="M186.3,19.5l-6.8-9.7h3.2l5.2,7.6l5.2-7.6h3l-6.8,9.7l7,9.8h-3.3l-5.3-7.8l-5.3,7.8h-3L186.3,19.5z"/>
<path class="st0" d="M198.3,0h3v3.8h-3V0z M198.4,9.8h2.7v19.5h-2.7V9.8z"/>
<path class="st0" d="M213.8,9.3c5.6,0,9.3,4,9.3,10.2s-4,10.2-9.3,10.2c-5.6,0-9.3-4-9.3-10.2S208.5,9.3,213.8,9.3z M213.8,27.3
	c3.7,0,6.4-3.2,6.4-7.8s-2.6-7.8-6.4-7.8s-6.4,3.2-6.4,7.8S210,27.3,213.8,27.3L213.8,27.3z"/>
<path class="st0" d="M226.5,0h2.7v29.3h-2.7V0z"/>
<path class="st0" d="M239.1,18.5l4.2-0.7c2-0.3,2.6-0.6,2.6-1.6c-0.1-3-1.6-4.6-4.6-4.6s-4.8,1.6-5,4.3h-2.6c0.2-3.8,3-6.5,7.6-6.5
	s7.4,2.6,7.4,7.1v12.8h-2.6v-3.1h-0.4c-1.1,2.3-3.3,3.6-6.4,3.6c-4.1,0-6.4-2.2-6.4-5.4S234.7,19.3,239.1,18.5z M245.9,18.8
	c-0.6,0.6-1.4,0.9-2.2,1l-4.1,0.7c-2.8,0.4-4,1.7-4,3.6s1.4,3.4,4.1,3.4c3.4,0,6.2-2,6.2-6.5L245.9,18.8z"/>
<path class="st0" d="M94.3,50.8h-2.9l-0.7,1.9H90l2.5-6.6h0.7l2.5,6.6H95L94.3,50.8z M94.1,50.1l-1-2.7c-0.1-0.3-0.2-0.4-0.2-0.6
	l0,0c-0.1,0.2-0.1,0.4-0.2,0.6l-1,2.7H94.1z"/>
<path class="st0" d="M104.2,50.9c0,0.9-0.5,1.8-2.2,1.8h-2.4v-6.6h2.3c1.7,0,2.2,1,2.2,1.7c0,0.7-0.5,1.3-1.2,1.5
	C103.7,49.4,104.3,50.1,104.2,50.9z M100.4,46.7V49h1.6c1.2,0,1.4-0.6,1.4-1.1s-0.3-1.2-1.4-1.2H100.4z M103.5,50.8
	c0-0.7-0.4-1.2-1.4-1.2h-1.7v2.5h1.7C103.2,52.1,103.5,51.5,103.5,50.8z"/>
<path class="st0" d="M108,49.4c0-2.2,1.2-3.5,3-3.5s3,1.3,3,3.5s-1.2,3.5-3,3.5S108,51.5,108,49.4z M113.2,49.4
	c0-1.8-0.8-2.9-2.2-2.9s-2.2,1.1-2.2,2.9s0.8,2.8,2.2,2.8S113.2,51.1,113.2,49.4z"/>
<path class="st0" d="M117.2,49.4c0-2,1.1-3.5,3-3.5c1.2-0.1,2.3,0.8,2.5,2L122,48c-0.1-0.9-0.9-1.6-1.8-1.5c-1.4,0-2.2,1.2-2.2,2.9
	s0.7,2.8,2.2,2.8c1.1,0,2-0.9,2-2c0,0,0-0.1,0-0.1v-0.2h-2.1v-0.6h2.7v3.4h-0.5l-0.1-1.2c-0.3,0.9-1.2,1.4-2.1,1.4
	C118.2,52.8,117.2,51.4,117.2,49.4z"/>
<path class="st0" d="M130.4,50.8h-2.9l-0.7,1.9h-0.8l2.5-6.6h0.7l2.5,6.6h-0.8L130.4,50.8z M130.2,50.1l-1-2.7
	c-0.1-0.2-0.2-0.4-0.2-0.6l0,0c-0.1,0.2-0.1,0.4-0.2,0.6l-1,2.7H130.2z"/>
<path class="st0" d="M135.4,46.1h2.1c1.7-0.1,3.1,1.2,3.2,2.8c0,0.2,0,0.3,0,0.5c0.1,1.7-1.1,3.2-2.8,3.3c-0.1,0-0.2,0-0.3,0h-2.1
	V46.1z M137.5,52.1c1.4,0,2.4-1.1,2.4-2.5c0-0.1,0-0.1,0-0.2c0-1.6-0.9-2.7-2.4-2.7h-1.4v5.4H137.5z"/>
<path class="st0" d="M144.1,49.4c0-2.2,1.2-3.5,3-3.5s3,1.3,3,3.5s-1.2,3.5-3,3.5S144.1,51.5,144.1,49.4z M149.3,49.4
	c0-1.8-0.8-2.9-2.2-2.9s-2.2,1.1-2.2,2.9s0.8,2.8,2.2,2.8S149.3,51.1,149.3,49.4z"/>
<path class="st0" d="M153.6,50.7l0.7-0.1c0,1,0.9,1.7,1.8,1.7c0,0,0.1,0,0.1,0c0.9,0,1.6-0.4,1.6-1.2s-0.5-1.1-1.4-1.3l-1-0.2
	c-0.9-0.1-1.6-0.9-1.6-1.8c0-1.1,0.9-1.8,2.2-1.8s2.3,0.6,2.4,1.9l-0.7,0.1c0-0.8-0.7-1.5-1.5-1.5c-0.1,0-0.1,0-0.2,0
	c-0.9,0-1.5,0.5-1.5,1.2s0.4,1,1.2,1.2l1,0.2c1,0.2,1.8,0.7,1.8,1.8s-0.8,1.9-2.4,1.9c-1.3,0.2-2.4-0.7-2.6-1.9
	C153.6,50.8,153.6,50.8,153.6,50.7z"/>
</svg>
